<svg xmlns="http://www.w3.org/2000/svg" width="497.025" height="497.025" style="enable-background:new 0 0 497.025 497.025; fill: #fa9b9b;" xml:space="preserve"><path d="M248.513 0C111.482 0 0 111.482 0 248.513s111.482 248.513 248.513 248.513 248.513-111.482 248.513-248.513S385.543 0 248.513 0zm43.656 105.875c7.317-23.856 16.045-52.593 4.979-81.52 83.442 18.087 150.07 81.688 172.537 163.425-9.945-.086-20.288.023-31.083.145-45.644.529-97.42 1.097-131.728-14.912-29.388-14.36-25.5-31.925-14.705-67.138zM46.405 355.538l-.497.411c-17.075-32.072-26.792-68.635-26.792-107.437 0-63.342 25.811-120.768 67.462-162.321 9.854 2.718 22.374 4.487 35.547 6.34 28.156 3.962 63.206 8.886 72.521 24.197 3.146 5.166 3.225 11.805.115 20.685-5.395 17.807-24.607 23.643-46.853 30.401-31.099 9.446-69.806 21.198-66.632 75.088 1.545 19.308 17.114 37.271 33.599 56.294 25.172 29.048 40.827 49.662 29.577 70.758-4.587 8.825-12.89 13.931-24.665 15.168-25.859 2.712-60.043-13.385-73.382-29.584zm202.108 122.371c-70.468 0-133.59-31.96-175.708-82.132 13.143 5.367 27.475 8.766 41.059 8.766 2.669 0 5.318-.131 7.918-.402 18.299-1.922 32.002-10.691 39.586-25.276 18.223-34.168-8.482-64.989-32.044-92.185-13.74-15.854-27.949-32.249-28.976-45.103-2.166-36.779 18.775-45.042 53.114-55.47 24.017-7.292 51.237-15.56 59.463-42.748 4.931-14.032 4.277-26.334-1.946-36.56-14.022-23.046-52.365-28.437-86.196-33.192-7.288-1.022-14.366-2.021-20.708-3.139 39.467-32.077 89.739-51.352 144.439-51.352 8.611 0 17.105.516 25.478 1.447 16.256 26.138 7.985 53.359-.098 79.711-9.735 31.757-20.764 67.745 24.745 89.996 31.731 14.806 74.154 16.965 114.856 16.965 8.56 0 17.039-.096 25.323-.189 12.368-.145 24.124-.255 35.246-.082 2.482 13.485 3.846 27.356 3.846 41.549 0 2.39-.074 4.761-.163 7.127-14.608 5.628-61.676 1.013-96.884-4.243-57.182-8.542-111.198-16.605-129.605 5.172-6.779 8.018-8.079 18.626-3.801 31.74 6.466 18.478 26.091 31.064 45.072 43.236 18.206 11.672 37.028 23.741 42.414 39.193 3.379 11.262 2.366 21.642 1.293 32.628-1.577 16.167-3.305 34.425 12.671 51.366-30.342 14.823-64.411 23.177-100.394 23.177zm117.545-32.539c-8.755-10.894-12.144-26.285-10.799-40.146 1.147-11.771 2.445-25.113-2.138-40.375-7.683-22.079-29.338-35.969-50.274-49.396-16.997-10.898-33.057-21.203-37.28-33.263-3.043-9.334-.537-12.293.289-13.273 11.537-13.642 69.712-4.947 112.188 1.391 42.093 6.287 78.854 11.752 98.308 4.574-8.328 72.419-50.509 134.654-110.294 170.488z"/></svg>
